<svg xmlns="http://www.w3.org/2000/svg" width="512" height="512" viewBox="0 0 512 512"><g fill="#231F20"><path d="M119.4 20.3h21.3v21h19.5v-21h21.3V84h-21.3V62.7h-19.5V84h-21.3V20.3zm90 21h-18.7v-21h58.8v21h-18.7V84h-21.3V41.4zm49.6-21h22l13.7 22.4 13.7-22.4h22.2V84h-21.2V52.5L294.8 75h-.4l-14.7-22.5V84H259V20.3zm82.2 0h21.3V63h30v21h-51.3V20.3zM200.7 266.7H256v-43h-59.2l4 43zM88.7 112l30.5 341.7 136.7 38 136.5-38L423.3 112H88.7zm278 320L256 462.7v-43.5l-86-23.8-6-67.3h42l3.3 35 46.7 13v-67h-94l-11.2-127h105v-42h136.8l-26 292.3z"/><path opacity=".8" d="M307.6 308.6H256v67l46.7-12.6 5-54.4zM256 140v41.8h105l-3.8 42H256v43h97.4L342 395.3 256 419v43.6L366.7 432l26-292H256z"/><path d="M256 181.8H151l11.3 126.8H256v-42h-55.3l-4-42.8H256m0 151.8L209.2 363l-3.2-35h-42l6 67.4 86 23.8" opacity=".2"/></g></svg>