<svg xmlns="http://www.w3.org/2000/svg" viewBox="-2 -2 278.3 278.3"><path fill="#fff" d="M272.4 114.4l-40-16.7 16.4-40C244.6 52 240 46.5 235 41.4l-1-1-1.5-1.5c-5-5-10.4-10-16-14l-40 16L160 2c-14.5-2.5-29-2.6-43.2-.5h-.7l-1 .5-17 40-40-16.6C46 34 36 44.2 27 55.8c0 .2-.3.3-.4.4l-1 1.5 16.6 40-40 16.6c-2.4 14.5-2.5 29-.4 43v1L2 160l40 16.4-16.6 40c3.8 5.3 8 10.5 12.4 15.2l2.4 2.5 1.8 2c4.8 5 10 9 15.7 13l40-16 16.6 40 1.8.8h1c14 2 29 2 44-.3l16.7-40 40 16.4 1.5-1c.3 0 .4-.3.6-.4 11.5-8.4 21.8-19 30.3-30.7l-17-40.3 40-16.5.4-1.5v-.8c2-14 2-28.8-.4-43.3zM240 144.6L197.8 162v.3l17.4 42.2c-3.3 3.8-6.8 7.4-10.6 10.7l-42.3-17.5h-.2L145 240c-5 .3-10 .3-15 0l-18-42.2L69.6 215l-1.4-1-4-4-4-4-1-1.5 17.4-42.3v-.2l-42.3-17.5c-.3-5-.3-10 0-15L76.6 112v-.2l-17.4-42c3.4-4 7-7.4 10.7-10.7l42 18 17-42h15l17 42 43-17 5.3 5.3 5 5.4-17.5 42.2 42 17.5c.6 5 .6 10 .3 15zm-67.4-22v-.2l10.2-24.6c-2-2.3-4-4.3-6.2-6.3L152 101.7h-.2L141.6 77c-3-.2-5.8-.2-8.8 0l-10.2 24.7L98 91.5c-2.4 2-4.5 4-6.5 6.2l10.3 24.7h-.2L77 132.8v8.7l24.8 10.2v.2l-10 24c1.8 2 4 4 6 6l24.7-10 10.3 24.2c3 .3 6 .3 8.8 0l10.2-24.5 24.8 10c2.2-1.8 4.2-4 6.2-6l-10.2-24v-.3l24.6-10.2.2-4.4v-4l-24.8-10.4zm-35.4 31.2c-9.2 0-16.7-7.5-16.7-16.7 0-9 7.5-16 16.7-16s16.6 8 16.6 17c0 9.6-7.5 17-16.7 17z"/></svg>
